<svg width="15" height="20" viewBox="0 0 15 20" fill="none" xmlns="http://www.w3.org/2000/svg">
<path d="M11.62 0C12.1667 0 12.6667 0.0333333 13.12 0.0999999C13.5867 0.166667 13.9267 0.253333 14.14 0.36C14.0067 0.76 13.8867 1.29333 13.78 1.96C13.6733 2.62667 13.62 3.15333 13.62 3.54C13.46 3.62 13.1667 3.68667 12.74 3.74C12.3267 3.78 11.9467 3.8 11.6 3.8V3.36C11.6 2.76 11.5667 2.3 11.5 1.98C11.4467 1.66 11.2933 1.5 11.04 1.5C10.7867 1.5 10.58 1.60667 10.42 1.82C10.26 2.03333 10.1133 2.40667 9.98 2.94C9.84667 3.46 9.68 4.25333 9.48 5.32H11.32C11.32 6.14667 11.2533 6.7 11.12 6.98C10.4133 6.98 9.74667 7.06667 9.12 7.24C8.94667 8.22667 8.74667 9.46 8.52 10.94C8.29333 12.42 7.88667 13.7933 7.3 15.06C6.72667 16.3267 6 17.34 5.12 18.1C4.24 18.86 3.26667 19.24 2.2 19.24C1.29333 19.24 0.56 18.9133 0 18.26C0 17.94 0.0466668 17.58 0.14 17.18C0.22 16.78 0.326667 16.4467 0.46 16.18C1.04667 16.4733 1.76 16.62 2.6 16.62C3.05333 16.62 3.4 16.5467 3.64 16.4C3.88 16.2533 4.06667 15.9667 4.2 15.54C4.33333 15.1133 4.44 14.46 4.52 13.58C4.68 11.7267 4.94 9.59333 5.3 7.18C4.74 6.99333 4.2 6.9 3.68 6.9C3.68 6.16667 3.77333 5.64 3.96 5.32H5.58L5.6 5.2C5.82667 3.98667 6.13333 3.01333 6.52 2.28C6.90667 1.54667 7.5 0.986667 8.3 0.600001C9.11333 0.2 10.22 0 11.62 0Z" fill="white"/>
</svg>
