<svg width="20" height="20" fill="none" xmlns="http://www.w3.org/2000/svg"><path d="M15.079 0c.568 0 1.088.035 1.56.104.484.07.838.16 1.06.27-.14.416-.264.97-.375 1.663-.11.693-.166 1.24-.166 1.643-.166.083-.471.152-.915.208-.43.041-.824.062-1.185.062v-.457c0-.624-.034-1.102-.104-1.435-.055-.332-.215-.499-.478-.499a.771.771 0 00-.644.333c-.167.222-.32.61-.458 1.164-.138.54-.312 1.365-.52 2.474h1.913c0 .86-.07 1.435-.208 1.726-.734 0-1.427.09-2.079.27-.18 1.026-.388 2.308-.623 3.846a15.841 15.841 0 01-1.269 4.283c-.596 1.317-1.351 2.37-2.266 3.16S6.396 20 5.287 20c-.943 0-1.705-.34-2.287-1.019 0-.332.049-.707.146-1.122a4.17 4.17 0 01.332-1.04c.61.305 1.352.457 2.225.457.47 0 .831-.076 1.08-.228.25-.153.444-.45.583-.894.139-.444.25-1.123.333-2.038.166-1.926.436-4.144.81-6.652a5.316 5.316 0 00-1.684-.291c0-.763.097-1.31.291-1.643H8.8l.021-.125c.236-1.26.555-2.273.957-3.035.402-.762 1.018-1.344 1.85-1.746C12.473.208 13.624 0 15.079 0z" fill="#fff"/></svg>